<svg width="32" height="32" viewBox="0 0 32 32" fill="none" xmlns="http://www.w3.org/2000/svg">
<path fill-rule="evenodd" clip-rule="evenodd" d="M4.57149 0.761719H27.4286C28.439 0.761719 29.4079 1.16308 30.1224 1.8775C30.8368 2.59193 31.2382 3.56089 31.2382 4.57124V27.4093C31.2382 28.4197 30.8368 29.3887 30.1224 30.1031C29.4079 30.8175 28.439 31.2189 27.4286 31.2189H4.57149C3.56114 31.2189 2.59217 30.8175 1.87775 30.1031C1.16332 29.3887 0.761963 28.4197 0.761963 27.4093V4.57124C0.761963 3.56089 1.16332 2.59193 1.87775 1.8775C2.59217 1.16308 3.56114 0.761719 4.57149 0.761719V0.761719Z" stroke="#333333" stroke-linecap="round" stroke-linejoin="round"/>
<path d="M1.0647 8.38086H31.238" stroke="#333333" stroke-linecap="round" stroke-linejoin="round"/>
<path fill-rule="evenodd" clip-rule="evenodd" d="M8.98297 21.0569V19.0016H10.6592C11.9315 19.0016 12.7963 18.2492 12.7963 17.1502C12.7963 16.1464 12.0058 15.3845 10.6954 15.3845C9.33726 15.3845 8.50107 16.0816 8.40774 17.2816H5.80964C5.90678 14.8073 7.81155 13.1426 10.8344 13.1426C13.8115 13.1426 15.4668 14.7883 15.4573 16.7521C15.4477 18.3788 14.4249 19.4492 12.983 19.8016V19.9788C14.8515 20.2473 15.9868 21.4378 15.9868 23.234C15.9868 25.5864 13.7734 27.2531 10.7411 27.2531C7.70869 27.2531 5.64393 25.594 5.52393 23.055H8.21154C8.29535 24.1902 9.26297 24.9159 10.7049 24.9159C12.1277 24.9159 13.1239 24.1426 13.1239 22.9807C13.1239 21.7902 12.1925 21.0569 10.6858 21.0569H8.98297ZM21.7354 26.9083V16.2226H21.5677L18.2744 18.4892V15.8778L21.7449 13.4873H24.5449V26.9083H21.7354Z" fill="#333333"/>
</svg>
