<svg width="40" height="40" viewBox="0 0 40 40" fill="none" xmlns="http://www.w3.org/2000/svg">
<path d="M35.3125 3.125H33.4375V0H30.3125V3.125H9.6875V0H6.5625V3.125H4.6875C2.10266 3.125 0 5.22766 0 7.8125V35.3125C0 37.8973 2.10266 40 4.6875 40H35.3125C37.8973 40 40 37.8973 40 35.3125V7.8125C40 5.22766 37.8973 3.125 35.3125 3.125ZM4.6875 6.25H6.5625V9.375H9.6875V6.25H30.3125V9.375H33.4375V6.25H35.3125C36.174 6.25 36.875 6.95099 36.875 7.8125V11.5625H3.125V7.8125C3.125 6.95099 3.82599 6.25 4.6875 6.25ZM35.3125 36.875H4.6875C3.82599 36.875 3.125 36.174 3.125 35.3125V14.6875H36.875V35.3125C36.875 36.174 36.174 36.875 35.3125 36.875ZM24.6875 32.5938C24.6875 33.146 25.1352 33.5938 25.6875 33.5938H33.0625C33.6148 33.5938 34.0625 33.146 34.0625 32.5938V25.2188C34.0625 24.6665 33.6148 24.2188 33.0625 24.2188H25.6875C25.1352 24.2188 24.6875 24.6665 24.6875 25.2188V32.5938ZM27.8125 27.3438H30.9375V30.4688H27.8125V27.3438Z" fill="#00CCCC"/>
<path d="M10.2153 31C10.1086 31 10.0126 30.9627 9.92731 30.888C9.85265 30.8027 9.81531 30.7067 9.81531 30.6V20.2C9.81531 20.0827 9.85265 19.9867 9.92731 19.912C10.0126 19.8373 10.1086 19.8 10.2153 19.8H12.2313C12.3486 19.8 12.4446 19.8373 12.5193 19.912C12.594 19.9867 12.6313 20.0827 12.6313 20.2V23.752L15.5913 20.104C15.7193 19.9013 15.9273 19.8 16.2153 19.8H18.5193C18.6153 19.8 18.6953 19.8373 18.7593 19.912C18.8233 19.976 18.8553 20.0507 18.8553 20.136C18.8553 20.2107 18.8393 20.2747 18.8073 20.328L14.9673 25.16L19.0953 30.472C19.138 30.5147 19.1593 30.5787 19.1593 30.664C19.1593 30.7493 19.1273 30.8293 19.0633 30.904C18.9993 30.968 18.9193 31 18.8233 31H16.4393C16.1833 31 15.97 30.8933 15.7993 30.68L12.6313 26.728V30.6C12.6313 30.7173 12.594 30.8133 12.5193 30.888C12.4446 30.9627 12.3486 31 12.2313 31H10.2153Z" fill="#00CCCC"/>
</svg>
