<svg width="40" height="40" viewBox="0 0 40 40" fill="none" xmlns="http://www.w3.org/2000/svg">
<path d="M35.3125 3.125H33.4375V0H30.3125V3.125H9.6875V0H6.5625V3.125H4.6875C2.10266 3.125 0 5.22766 0 7.8125V35.3125C0 37.8973 2.10266 40 4.6875 40H35.3125C37.8973 40 40 37.8973 40 35.3125V7.8125C40 5.22766 37.8973 3.125 35.3125 3.125ZM4.6875 6.25H6.5625V9.375H9.6875V6.25H30.3125V9.375H33.4375V6.25H35.3125C36.174 6.25 36.875 6.95099 36.875 7.8125V11.5625H3.125V7.8125C3.125 6.95099 3.82599 6.25 4.6875 6.25ZM35.3125 36.875H4.6875C3.82599 36.875 3.125 36.174 3.125 35.3125V14.6875H36.875V35.3125C36.875 36.174 36.174 36.875 35.3125 36.875ZM24.6875 32.5938C24.6875 33.146 25.1352 33.5938 25.6875 33.5938H33.0625C33.6148 33.5938 34.0625 33.146 34.0625 32.5938V25.2188C34.0625 24.6665 33.6148 24.2188 33.0625 24.2188H25.6875C25.1352 24.2188 24.6875 24.6665 24.6875 25.2188V32.5938ZM27.8125 27.3438H30.9375V30.4688H27.8125V27.3438Z" fill="#00CCCC"/>
<path d="M10.4106 31C10.304 31 10.208 30.9627 10.1226 30.888C10.048 30.8027 10.0106 30.7067 10.0106 30.6V20.2C10.0106 20.0827 10.048 19.9867 10.1226 19.912C10.208 19.8373 10.304 19.8 10.4106 19.8H17.8826C18 19.8 18.096 19.8373 18.1706 19.912C18.2453 19.9867 18.2826 20.0827 18.2826 20.2V21.704C18.2826 21.8107 18.2453 21.9067 18.1706 21.992C18.096 22.0667 18 22.104 17.8826 22.104H12.7786V24.264H17.5306C17.648 24.264 17.744 24.3067 17.8186 24.392C17.8933 24.4667 17.9306 24.5627 17.9306 24.68V26.072C17.9306 26.1787 17.8933 26.2747 17.8186 26.36C17.744 26.4347 17.648 26.472 17.5306 26.472H12.7786V28.696H18.0106C18.128 28.696 18.224 28.7333 18.2986 28.808C18.3733 28.8827 18.4106 28.9787 18.4106 29.096V30.6C18.4106 30.7067 18.3733 30.8027 18.2986 30.888C18.224 30.9627 18.128 31 18.0106 31H10.4106Z" fill="#00CCCC"/>
</svg>
