<svg width="40" height="40" viewBox="0 0 40 40" fill="none" xmlns="http://www.w3.org/2000/svg">
<path d="M35.3125 3.125H33.4375V0H30.3125V3.125H9.6875V0H6.5625V3.125H4.6875C2.10266 3.125 0 5.22766 0 7.8125V35.3125C0 37.8973 2.10266 40 4.6875 40H35.3125C37.8973 40 40 37.8973 40 35.3125V7.8125C40 5.22766 37.8973 3.125 35.3125 3.125ZM4.6875 6.25H6.5625V9.375H9.6875V6.25H30.3125V9.375H33.4375V6.25H35.3125C36.174 6.25 36.875 6.95099 36.875 7.8125V11.5625H3.125V7.8125C3.125 6.95099 3.82599 6.25 4.6875 6.25ZM35.3125 36.875H4.6875C3.82599 36.875 3.125 36.174 3.125 35.3125V14.6875H36.875V35.3125C36.875 36.174 36.174 36.875 35.3125 36.875ZM24.6875 32.5938C24.6875 33.146 25.1352 33.5938 25.6875 33.5938H33.0625C33.6148 33.5938 34.0625 33.146 34.0625 32.5938V25.2188C34.0625 24.6665 33.6148 24.2188 33.0625 24.2188H25.6875C25.1352 24.2188 24.6875 24.6665 24.6875 25.2188V32.5938ZM27.8125 27.3438H30.9375V30.4688H27.8125V27.3438Z" fill="#00CCCC"/>
<path d="M9.88719 31C9.78052 31 9.68452 30.9627 9.59919 30.888C9.52452 30.8027 9.48719 30.7067 9.48719 30.6V20.2C9.48719 20.0827 9.52452 19.9867 9.59919 19.912C9.68452 19.8373 9.78052 19.8 9.88719 19.8H14.7672C16.1112 19.8 17.1085 20.0773 17.7592 20.632C18.4205 21.176 18.7512 21.9547 18.7512 22.968C18.7512 23.5013 18.6125 23.9547 18.3352 24.328C18.0685 24.6907 17.7645 24.9573 17.4232 25.128C17.8605 25.3307 18.2285 25.656 18.5272 26.104C18.8259 26.552 18.9752 27.0533 18.9752 27.608C18.9752 28.6747 18.6232 29.5067 17.9192 30.104C17.2152 30.7013 16.2125 31 14.9112 31H9.88719ZM14.4472 24.248C14.8739 24.248 15.1992 24.1413 15.4232 23.928C15.6472 23.704 15.7592 23.4107 15.7592 23.048C15.7592 22.696 15.6472 22.4133 15.4232 22.2C15.1992 21.9867 14.8739 21.88 14.4472 21.88H12.3672V24.248H14.4472ZM14.5912 28.92C15.0285 28.92 15.3699 28.792 15.6152 28.536C15.8605 28.28 15.9832 27.9707 15.9832 27.608C15.9832 27.224 15.8605 26.9093 15.6152 26.664C15.3699 26.408 15.0285 26.28 14.5912 26.28H12.3672V28.92H14.5912Z" fill="#00CCCC"/>
</svg>
