<svg width="40" height="40" viewBox="0 0 40 40" fill="none" xmlns="http://www.w3.org/2000/svg">
<path d="M28.2188 6.24344C28.8264 6.85609 28.8223 7.84547 28.2097 8.45312C27.905 8.75531 27.5071 8.90617 27.1095 8.90625C26.7074 8.90625 26.3055 8.75211 26 8.44406L21.1834 3.58766C20.8874 3.2893 20.4948 3.125 20.0781 3.125C19.6614 3.125 19.2688 3.2893 18.973 3.58766L14.1562 8.44406C13.5486 9.05672 12.5593 9.06078 11.9466 8.45312C11.3339 7.84547 11.3298 6.85609 11.9375 6.24344L16.7541 1.38703C17.6413 0.492578 18.8218 0 20.0781 0C21.3345 0 22.5149 0.492578 23.4021 1.38703L28.2188 6.24344ZM26 31.5559L21.1834 36.4123C20.8874 36.7107 20.4948 36.875 20.0781 36.875C19.6614 36.875 19.2688 36.7107 18.973 36.4123L14.1562 31.5559C13.5486 30.9433 12.5593 30.9392 11.9466 31.5469C11.3339 32.1545 11.3298 33.1439 11.9375 33.7566L16.7541 38.613C17.6413 39.5074 18.8218 40 20.0781 40C21.3345 40 22.5149 39.5074 23.4021 38.613L28.2188 33.7566C28.8264 33.1439 28.8223 32.1545 28.2097 31.5469C27.597 30.9391 26.6077 30.9433 26 31.5559ZM8.44406 14.0781C9.05672 13.4705 9.06086 12.4811 8.45312 11.8684C7.84539 11.2558 6.85617 11.2517 6.24344 11.8594L1.38703 16.676C0.492578 17.5632 0 18.7437 0 20C0 21.2563 0.492578 22.4368 1.38703 23.324L6.24344 28.1406C6.54813 28.4428 6.94602 28.5938 7.34367 28.5938C7.7457 28.5938 8.14766 28.4395 8.45312 28.1316C9.06078 27.5189 9.05672 26.5295 8.44406 25.9219L3.58766 21.1052C3.2893 20.8093 3.125 20.4167 3.125 20C3.125 19.5833 3.2893 19.1907 3.58766 18.8948L8.44406 14.0781ZM38.613 16.676L33.7566 11.8594C33.1438 11.2517 32.1545 11.2557 31.5469 11.8684C30.9392 12.4811 30.9433 13.4705 31.5559 14.0781L36.4123 18.8948C36.7107 19.1907 36.875 19.5833 36.875 20C36.875 20.4167 36.7107 20.8093 36.4123 21.1052L31.5559 25.9219C30.9433 26.5295 30.9391 27.5189 31.5469 28.1316C31.8523 28.4396 32.2542 28.5938 32.6562 28.5938C33.0539 28.5938 33.4519 28.4428 33.7565 28.1406L38.6129 23.324C39.5074 22.4368 40 21.2563 40 20C40 18.7437 39.5074 17.5632 38.613 16.676ZM20.0781 25.4688C17.0627 25.4688 14.6094 23.0155 14.6094 20C14.6094 16.9845 17.0627 14.5312 20.0781 14.5312C23.0936 14.5312 25.5469 16.9845 25.5469 20C25.5469 23.0155 23.0936 25.4688 20.0781 25.4688ZM20.0781 22.3438C21.3705 22.3438 22.4219 21.2923 22.4219 20C22.4219 18.7077 21.3705 17.6562 20.0781 17.6562C18.7858 17.6562 17.7344 18.7077 17.7344 20C17.7344 21.2923 18.7858 22.3438 20.0781 22.3438Z" fill="#00CCCC"/>
</svg>
