<svg width="236" height="110" viewBox="0 0 236 110" fill="none" xmlns="http://www.w3.org/2000/svg">
<path d="M7.52941 25.572L0.655534 0.5H231.213C231.688 0.5 232.194 0.743862 232.709 1.3002C233.225 1.85714 233.713 2.69046 234.132 3.76216C234.971 5.9025 235.5 8.8934 235.5 12.2222V97.7778C235.5 101.107 234.971 104.098 234.132 106.238C233.713 107.31 233.225 108.143 232.709 108.7C232.194 109.256 231.688 109.5 231.213 109.5H14.3611C13.8859 109.5 13.3798 109.256 12.8646 108.7C12.3489 108.143 11.8614 107.31 11.4417 106.238C10.6034 104.098 10.074 101.107 10.074 97.7778V44.4772C10.074 38.0901 9.21821 31.7318 7.52941 25.572Z" fill="#FDFDFD" stroke="#E0E0E0"/>
</svg>
