<svg width="40" height="40" viewBox="0 0 40 40" fill="none" xmlns="http://www.w3.org/2000/svg">
<path d="M10 2.5H22.5V5H10C9.33696 5 8.70107 5.26339 8.23223 5.73223C7.76339 6.20107 7.5 6.83696 7.5 7.5V32.5C7.5 33.163 7.76339 33.7989 8.23223 34.2678C8.70107 34.7366 9.33696 35 10 35H30C30.663 35 31.2989 34.7366 31.7678 34.2678C32.2366 33.7989 32.5 33.163 32.5 32.5V15H35V32.5C35 33.8261 34.4732 35.0979 33.5355 36.0355C32.5979 36.9732 31.3261 37.5 30 37.5H10C8.67392 37.5 7.40215 36.9732 6.46447 36.0355C5.52678 35.0979 5 33.8261 5 32.5V7.5C5 6.17392 5.52678 4.90215 6.46447 3.96447C7.40215 3.02678 8.67392 2.5 10 2.5Z" fill="#333333"/>
<path d="M22.5 11.25V2.5L35 15H26.25C25.2554 15 24.3016 14.6049 23.5983 13.9017C22.8951 13.1984 22.5 12.2446 22.5 11.25Z" fill="#333333"/>
</svg>
