<svg width="40" height="40" viewBox="0 0 40 40" fill="none" xmlns="http://www.w3.org/2000/svg">
<path d="M25.4681 8V9.86618H28.7928L25.6435 13.0443C24.5179 12.1943 23.1461 11.7338 21.7356 11.7324C19.9907 11.7324 18.3614 12.4228 17.1278 13.6573C16.5181 14.2597 16.034 14.9771 15.7036 15.768C15.3732 16.5589 15.2031 17.4075 15.2032 18.2646C15.2033 19.1218 15.3736 19.9703 15.7041 20.7612C16.0346 21.552 16.5189 22.2693 17.1288 22.8716C17.9406 23.6834 18.9073 24.2666 19.986 24.5623C20.0924 24.4812 20.2118 24.3963 20.307 24.3011C20.6981 23.9033 20.9792 23.4107 21.1226 22.8716C20.1067 22.7462 19.1621 22.2839 18.4398 21.5587C17.5589 20.6788 17.07 19.5106 17.07 18.264C17.07 17.0174 17.5599 15.851 18.4417 14.9702C19.3207 14.0865 20.489 13.5985 21.7356 13.5985C22.9823 13.5985 24.1496 14.0884 25.0295 14.9702C25.4649 15.401 25.8104 15.914 26.0459 16.4795C26.2813 17.0449 26.4021 17.6515 26.4012 18.264C26.4012 19.0711 26.1726 19.8222 25.7891 20.509C25.8787 20.9905 25.9347 21.4962 25.9347 21.9963C25.9347 22.461 25.8955 22.9201 25.818 23.368C26.0047 23.2159 26.1708 23.0433 26.3434 22.8716C27.577 21.6362 28.2675 20.0089 28.2675 18.264C28.2675 16.8364 27.7972 15.4796 26.9555 14.3562L30.1337 11.208V14.5316H32V8H25.4681ZM19.7527 15.698C19.6463 15.7792 19.5269 15.8641 19.4317 15.9593C19.0286 16.3642 18.7655 16.855 18.6162 17.3897C19.6333 17.5203 20.5617 17.9645 21.2989 18.7016C22.1807 19.5815 22.6706 20.7497 22.6706 21.9954C22.6706 23.2411 22.1807 24.4084 21.2989 25.2892C20.418 26.1738 19.2498 26.6618 18.0031 26.6618C16.7565 26.6618 15.5891 26.1719 14.7092 25.2902C14.2735 24.8596 13.9278 24.3466 13.6923 23.7811C13.4568 23.2156 13.3362 22.6089 13.3375 21.9963C13.3375 21.1892 13.5661 20.4381 13.9496 19.7513C13.8559 19.261 13.8072 18.7632 13.804 18.264C13.804 17.7993 13.8432 17.3402 13.9207 16.8923C13.7341 17.0444 13.5689 17.2171 13.3953 17.3897C12.1636 18.6223 11.4712 20.2515 11.4712 21.9963C11.4712 23.424 11.9415 24.7807 12.7832 25.9041L11.21 27.4782L9.3437 25.6121L8 26.924L9.86625 28.7902L8 30.6564L9.3437 32L11.21 30.1338L13.0762 32L14.3872 30.6564L12.521 28.7902L14.0961 27.217C15.2207 28.0682 16.5927 28.5286 18.0031 28.528C19.7481 28.528 21.3773 27.8375 22.6109 26.603C23.8445 25.3704 24.535 23.7412 24.535 21.9963C24.535 20.2515 23.8445 18.6242 22.61 17.3887C21.7981 16.577 20.8314 15.9938 19.7527 15.698Z" fill="#333333"/>
</svg>
