<svg width="40" height="40" viewBox="0 0 40 40" fill="none" xmlns="http://www.w3.org/2000/svg">
<path d="M19.8376 9.96826C18.8487 9.96826 17.882 10.2615 17.0598 10.8109C16.2376 11.3603 15.5967 12.1412 15.2183 13.0548C14.8398 13.9685 14.7408 14.9738 14.9337 15.9437C15.1266 16.9136 15.6029 17.8045 16.3021 18.5038C17.0014 19.2031 17.8923 19.6793 18.8622 19.8722C19.8321 20.0651 20.8374 19.9661 21.7511 19.5877C22.6647 19.2092 23.4456 18.5684 23.995 17.7461C24.5444 16.9239 24.8376 15.9572 24.8376 14.9683C24.8361 13.6426 24.3089 12.3717 23.3715 11.4344C22.4342 10.497 21.1633 9.96977 19.8376 9.96826ZM19.8376 17.4683C19.3432 17.4683 18.8598 17.3216 18.4487 17.0469C18.0376 16.7722 17.7172 16.3818 17.5279 15.925C17.3387 15.4682 17.2892 14.9655 17.3857 14.4805C17.4821 13.9956 17.7203 13.5501 18.0699 13.2005C18.4195 12.8509 18.865 12.6128 19.3499 12.5163C19.8349 12.4198 20.3375 12.4693 20.7944 12.6586C21.2512 12.8478 21.6416 13.1682 21.9163 13.5793C22.191 13.9905 22.3376 14.4738 22.3376 14.9683C22.3369 15.6311 22.0732 16.2665 21.6046 16.7352C21.1359 17.2039 20.5005 17.4675 19.8376 17.4683Z" fill="black"/>
<path d="M29.4456 5.35304C27.0701 2.97807 23.899 1.56724 20.5443 1.39285C17.1897 1.21845 13.8894 2.29285 11.2804 4.40868C8.67137 6.52452 6.93856 9.53179 6.41642 12.8501C5.89427 16.1684 6.61979 19.5625 8.45296 22.3773L17.8988 36.8783C18.109 37.201 18.3964 37.4661 18.735 37.6496C19.0736 37.8332 19.4526 37.9293 19.8377 37.9293C20.2228 37.9293 20.6018 37.8332 20.9404 37.6496C21.2789 37.4661 21.5664 37.201 21.7766 36.8783L31.2227 22.3773C32.9237 19.7662 33.6754 16.6497 33.3519 13.5502C33.0283 10.4507 31.6492 7.55662 29.4456 5.35304ZM29.128 21.0127L19.8377 35.2744L10.5473 21.0127C7.70359 16.6472 8.31351 10.805 11.9976 7.12077C13.0271 6.09117 14.2494 5.27444 15.5947 4.71722C16.9399 4.16001 18.3817 3.87321 19.8377 3.87321C21.2938 3.87321 22.7356 4.16001 24.0808 4.71722C25.426 5.27444 26.6483 6.09117 27.6779 7.12077C31.3619 10.805 31.9718 16.6472 29.128 21.0127Z" fill="black"/>
</svg>
