<svg width="220" height="70" viewBox="0 0 220 70" fill="none" xmlns="http://www.w3.org/2000/svg">
<g clip-path="url(#clip0)">
<path d="M62.89 19.65C63.2367 19.9533 63.605 20.56 63.995 21.47C64.4283 22.3367 64.7317 23.3333 64.905 24.46L65.035 26.02L65.685 24.46C66.5517 22.7267 67.6783 21.3833 69.065 20.43C70.495 19.4767 71.9033 19 73.29 19C74.5467 19 75.955 19.26 77.515 19.78L76.475 27.125C75.6083 26.865 74.8717 26.6917 74.265 26.605C73.7017 26.5183 73.16 26.475 72.64 26.475C71.5133 26.475 70.5167 26.7567 69.65 27.32C68.7833 27.8833 68.0467 28.6633 67.44 29.66C66.8333 30.6133 66.3567 31.7833 66.01 33.17C65.7067 34.5133 65.555 35.9867 65.555 37.59V53.255H57.04V27.84C57.04 26.6267 56.9533 25.3483 56.78 24.005C56.65 22.6183 56.39 21.1667 56 19.65H62.89Z" fill="#00CCCC"/>
<path d="M28.53 11.695C26.2767 11.695 24.305 12.1717 22.615 13.125C20.925 14.0783 19.495 15.3783 18.325 17.025C17.1983 18.6717 16.3317 20.5783 15.725 22.745C15.1617 24.9117 14.88 27.1867 14.88 29.57C14.88 31.8233 15.1617 34.0333 15.725 36.2C16.3317 38.3233 17.1983 40.23 18.325 41.92C19.495 43.5667 20.925 44.91 22.615 45.95C24.305 46.9467 26.2767 47.445 28.53 47.445C30.3067 47.445 32.0183 47.055 33.665 46.275C35.3117 45.4517 36.7633 44.2817 38.02 42.765C39.2767 41.2483 40.2733 39.385 41.01 37.175C41.79 34.965 42.18 32.43 42.18 29.57C42.18 27.0133 41.855 24.6517 41.205 22.485C40.5983 20.275 39.71 18.39 38.54 16.83C37.37 15.2267 35.94 13.97 34.25 13.06C32.56 12.15 30.6533 11.695 28.53 11.695ZM28.53 54.14C24.76 54.14 21.4233 53.5117 18.52 52.255C15.6167 50.9983 13.1467 49.2867 11.11 47.12C9.11667 44.91 7.6 42.31 6.56 39.32C5.52 36.33 5 33.08 5 29.57C5 26.19 5.52 23.005 6.56 20.015C7.64333 17.025 9.18167 14.425 11.175 12.215C13.2117 9.96167 15.6817 8.20667 18.585 6.95C21.4883 5.65 24.8033 5 28.53 5C32.7767 5 36.3733 5.73667 39.32 7.21C42.31 8.68334 44.7367 10.6117 46.6 12.995C48.5067 15.335 49.8717 17.9783 50.695 20.925C51.5617 23.8283 51.995 26.71 51.995 29.57C51.995 32.7767 51.475 35.8533 50.435 38.8C49.395 41.7467 47.8783 44.3683 45.885 46.665C43.935 48.9183 41.4867 50.7383 38.54 52.125C35.6367 53.4683 32.3 54.14 28.53 54.14Z" fill="#00CCCC"/>
<path d="M144.295 31.845C144.425 30.8483 144.382 29.895 144.165 28.985C143.948 28.075 143.58 27.2733 143.06 26.58C142.583 25.8867 141.955 25.345 141.175 24.955C140.438 24.5217 139.572 24.305 138.575 24.305C137.665 24.305 136.755 24.5 135.845 24.89C134.978 25.28 134.177 25.9083 133.44 26.775C132.703 27.5983 132.097 28.6817 131.62 30.025C131.187 31.325 130.97 32.9067 130.97 34.77C130.97 38.54 131.815 41.465 133.505 43.545C135.195 45.5817 137.405 46.6 140.135 46.6C141.652 46.6 143.125 46.4267 144.555 46.08C146.028 45.69 147.718 45.0617 149.625 44.195L151.9 50.24C149.56 51.3667 147.35 52.1467 145.27 52.58C143.233 53.0567 141.197 53.295 139.16 53.295C136.17 53.295 133.592 52.7533 131.425 51.67C129.302 50.5867 127.525 49.2 126.095 47.51C124.708 45.7767 123.668 43.8267 122.975 41.66C122.325 39.4933 122 37.305 122 35.095C122 32.4083 122.433 30.0033 123.3 27.88C124.21 25.7567 125.423 23.98 126.94 22.55C128.5 21.0767 130.32 19.95 132.4 19.17C134.48 18.39 136.69 18 139.03 18C141.413 18 143.602 18.4767 145.595 19.43C147.588 20.3833 149.192 21.705 150.405 23.395C151.618 25.085 152.355 27.1217 152.615 29.505C152.918 31.845 152.593 34.4017 151.64 37.175H133.44C133.917 35.6583 134.588 34.4017 135.455 33.405C136.365 32.365 137.383 31.845 138.51 31.845H144.295Z" fill="#00CCCC"/>
<path d="M165.89 19.65C166.237 19.9533 166.605 20.56 166.995 21.47C167.428 22.3367 167.732 23.3333 167.905 24.46L168.035 26.02L168.685 24.46C169.552 22.7267 170.678 21.3833 172.065 20.43C173.495 19.4767 174.903 19 176.29 19C177.547 19 178.955 19.26 180.515 19.78L179.475 27.125C178.608 26.865 177.872 26.6917 177.265 26.605C176.702 26.5183 176.16 26.475 175.64 26.475C174.513 26.475 173.517 26.7567 172.65 27.32C171.783 27.8833 171.047 28.6633 170.44 29.66C169.833 30.6133 169.357 31.7833 169.01 33.17C168.707 34.5133 168.555 35.9867 168.555 37.59V53.255H160.04V27.84C160.04 26.6267 159.953 25.3483 159.78 24.005C159.65 22.6183 159.39 21.1667 159 19.65H165.89Z" fill="#00CCCC"/>
<path d="M189.28 62.095C190.407 62.095 191.382 61.835 192.205 61.315C193.028 60.795 193.765 60.0367 194.415 59.04C195.065 58.0433 195.65 56.8083 196.17 55.335C196.733 53.8617 197.34 52.15 197.99 50.2L207.61 19H216.905L205.01 51.89C203.927 54.7067 202.908 57.155 201.955 59.235C201.002 61.3583 199.962 63.1133 198.835 64.5C197.708 65.8867 196.387 66.9267 194.87 67.62C193.353 68.3567 191.49 68.725 189.28 68.725C188.413 68.6817 187.46 68.5733 186.42 68.4C185.423 68.27 184.405 67.9667 183.365 67.49L185.445 61.64C186.182 61.8567 186.853 61.9867 187.46 62.03C188.067 62.0733 188.673 62.095 189.28 62.095ZM196.3 34.34C196.733 35.77 196.972 37.3083 197.015 38.955C197.058 40.6017 196.95 42.2267 196.69 43.83C196.43 45.39 196.062 46.885 195.585 48.315C195.152 49.7017 194.653 50.85 194.09 51.76L182 19H191.75L196.3 34.34Z" fill="#00CCCC"/>
<path d="M95.885 53.845C93.545 53.845 91.4433 53.4116 89.58 52.545C87.7167 51.635 86.1567 50.3783 84.9 48.775C83.6433 47.1716 82.6683 45.2866 81.975 43.12C81.325 40.91 81 38.5266 81 35.97C81 33.6733 81.39 31.485 82.17 29.405C82.95 27.325 83.99 25.505 85.29 23.945C86.6333 22.385 88.1717 21.15 89.905 20.24C91.6383 19.2866 93.4367 18.81 95.3 18.81C96.4267 18.81 97.51 18.8966 98.55 19.07C99.6333 19.2 101.02 19.5033 102.71 19.98C102.103 21.4966 101.41 22.7316 100.63 23.685C99.85 24.595 98.9183 25.0933 97.835 25.18C96.4917 25.2666 95.365 25.5916 94.455 26.155C93.545 26.7183 92.8083 27.4766 92.245 28.43C91.6817 29.34 91.27 30.445 91.01 31.745C90.75 33.045 90.62 34.4533 90.62 35.97C90.62 37.4866 90.7717 38.9166 91.075 40.26C91.3783 41.6033 91.8117 42.795 92.375 43.835C92.9817 44.8316 93.7183 45.6333 94.585 46.24C95.4517 46.8466 96.4267 47.15 97.51 47.15C99.8933 47.15 102.407 45.6333 105.05 42.6V2C110.04 2 114.085 6.04511 114.085 11.035V44.81C114.085 46.0233 114.15 47.3233 114.28 48.71C114.453 50.0533 114.713 51.4833 115.06 53H108.105C107.542 52.6966 107.065 52.2633 106.675 51.7C106.328 51.1367 106.047 50.5516 105.83 49.945L105.505 48.45L104.4 49.88C102.71 51.3966 101.172 52.4366 99.785 53C98.4417 53.5633 97.1417 53.845 95.885 53.845Z" fill="#00CCCC"/>
<path d="M22.9732 57.8125V59.6035H24.3541V60.5811H22.9732V65.168C22.9732 65.4642 23.0347 65.6875 23.1578 65.8379C23.2808 65.9837 23.4905 66.0566 23.7867 66.0566C23.9325 66.0566 24.133 66.0293 24.3882 65.9746V67C24.0556 67.0911 23.732 67.1367 23.4175 67.1367C22.8524 67.1367 22.4263 66.9658 22.1392 66.624C21.8521 66.2822 21.7086 65.7969 21.7086 65.168V60.5811H20.3619V59.6035H21.7086V57.8125H22.9732ZM29.5368 67.1367C28.5342 67.1367 27.7184 66.8086 27.0895 66.1523C26.4606 65.4915 26.1462 64.6097 26.1462 63.5068V63.2744C26.1462 62.5407 26.2852 61.8867 26.5632 61.3125C26.8457 60.7337 27.2376 60.2826 27.7389 59.959C28.2448 59.6309 28.7917 59.4668 29.3796 59.4668C30.3412 59.4668 31.0886 59.7835 31.6218 60.417C32.155 61.0505 32.4216 61.9574 32.4216 63.1377V63.6641H27.4108C27.4291 64.3932 27.641 64.9834 28.0466 65.4346C28.4567 65.8812 28.9763 66.1045 29.6052 66.1045C30.0518 66.1045 30.43 66.0133 30.7399 65.8311C31.0498 65.6488 31.321 65.4072 31.5534 65.1064L32.3259 65.708C31.7061 66.6605 30.7764 67.1367 29.5368 67.1367ZM29.3796 60.5059C28.8692 60.5059 28.4408 60.6927 28.0944 61.0664C27.7481 61.4355 27.5339 61.9551 27.4518 62.625H31.1569V62.5293C31.1205 61.8867 30.9473 61.39 30.6374 61.0391C30.3275 60.6836 29.9082 60.5059 29.3796 60.5059ZM35.7107 65.9678H40.0379V67H34.1658V66.0703L38.2469 60.6494H34.2273V59.6035H39.8328V60.499L35.7107 65.9678ZM46.1856 61.7227C46.1856 61.3262 46.3109 61.0003 46.5616 60.7451C46.8168 60.4899 47.154 60.3623 47.5733 60.3623C47.988 60.3623 48.3252 60.4876 48.585 60.7383C48.8448 60.9844 48.9747 61.3193 48.9747 61.7432V61.9961C48.9747 62.3926 48.8493 62.7161 48.5987 62.9668C48.348 63.2174 48.0085 63.3428 47.5801 63.3428C47.1563 63.3428 46.8168 63.2174 46.5616 62.9668C46.3109 62.7116 46.1856 62.3835 46.1856 61.9824V61.7227ZM57.3645 57.8125V59.6035H58.7454V60.5811H57.3645V65.168C57.3645 65.4642 57.4261 65.6875 57.5491 65.8379C57.6721 65.9837 57.8818 66.0566 58.178 66.0566C58.3238 66.0566 58.5244 66.0293 58.7796 65.9746V67C58.4469 67.0911 58.1233 67.1367 57.8089 67.1367C57.2438 67.1367 56.8177 66.9658 56.5305 66.624C56.2434 66.2822 56.0999 65.7969 56.0999 65.168V60.5811H54.7532V59.6035H56.0999V57.8125H57.3645ZM63.9281 67.1367C62.9255 67.1367 62.1098 66.8086 61.4809 66.1523C60.852 65.4915 60.5375 64.6097 60.5375 63.5068V63.2744C60.5375 62.5407 60.6765 61.8867 60.9545 61.3125C61.237 60.7337 61.629 60.2826 62.1303 59.959C62.6361 59.6309 63.183 59.4668 63.7709 59.4668C64.7325 59.4668 65.4799 59.7835 66.0131 60.417C66.5463 61.0505 66.8129 61.9574 66.8129 63.1377V63.6641H61.8022C61.8204 64.3932 62.0323 64.9834 62.4379 65.4346C62.848 65.8812 63.3676 66.1045 63.9965 66.1045C64.4431 66.1045 64.8214 66.0133 65.1313 65.8311C65.4411 65.6488 65.7123 65.4072 65.9447 65.1064L66.7172 65.708C66.0974 66.6605 65.1677 67.1367 63.9281 67.1367ZM63.7709 60.5059C63.2605 60.5059 62.8321 60.6927 62.4857 61.0664C62.1394 61.4355 61.9252 61.9551 61.8432 62.625H65.5482V62.5293C65.5118 61.8867 65.3386 61.39 65.0287 61.0391C64.7188 60.6836 64.2995 60.5059 63.7709 60.5059ZM70.2183 59.6035V67.8545C70.2183 69.2764 69.5734 69.9873 68.2837 69.9873C68.0057 69.9873 67.7482 69.9463 67.5113 69.8643V68.8525C67.6571 68.889 67.8485 68.9072 68.0855 68.9072C68.368 68.9072 68.5822 68.8298 68.7281 68.6748C68.8784 68.5244 68.9536 68.2601 68.9536 67.8818V59.6035H70.2183ZM68.8238 57.6416C68.8238 57.4411 68.8853 57.2702 69.0083 57.1289C69.1359 56.9831 69.3205 56.9102 69.562 56.9102C69.8081 56.9102 69.995 56.9808 70.1226 57.1221C70.2502 57.2633 70.314 57.4365 70.314 57.6416C70.314 57.8467 70.2502 58.0176 70.1226 58.1543C69.995 58.291 69.8081 58.3594 69.562 58.3594C69.3159 58.3594 69.1314 58.291 69.0083 58.1543C68.8853 58.0176 68.8238 57.8467 68.8238 57.6416ZM77.4586 67C77.3857 66.8542 77.3265 66.5944 77.2809 66.2207C76.693 66.8314 75.9912 67.1367 75.1754 67.1367C74.4463 67.1367 73.847 66.9316 73.3776 66.5215C72.9127 66.1068 72.6803 65.5827 72.6803 64.9492C72.6803 64.179 72.972 63.582 73.5553 63.1582C74.1432 62.7298 74.9681 62.5156 76.0299 62.5156H77.2604V61.9346C77.2604 61.4925 77.1282 61.1416 76.8639 60.8818C76.5996 60.6175 76.2099 60.4854 75.695 60.4854C75.2438 60.4854 74.8655 60.5993 74.5602 60.8271C74.2549 61.055 74.1022 61.3307 74.1022 61.6543H72.8307C72.8307 61.2852 72.9606 60.9297 73.2204 60.5879C73.4847 60.2415 73.8401 59.9681 74.2868 59.7676C74.7379 59.5671 75.2324 59.4668 75.7702 59.4668C76.6224 59.4668 77.29 59.681 77.7731 60.1094C78.2562 60.5332 78.5068 61.1188 78.525 61.8662V65.2705C78.525 65.9495 78.6116 66.4896 78.7848 66.8906V67H77.4586ZM75.36 66.0361C75.7565 66.0361 76.1325 65.9336 76.4879 65.7285C76.8434 65.5234 77.1009 65.2568 77.2604 64.9287V63.4111H76.2692C74.7197 63.4111 73.945 63.8646 73.945 64.7715C73.945 65.168 74.0771 65.4779 74.3414 65.7012C74.6058 65.9245 74.9453 66.0361 75.36 66.0361ZM82.3269 59.6035L82.3611 60.4238C82.9034 59.7858 83.6349 59.4668 84.5554 59.4668C85.5899 59.4668 86.294 59.8633 86.6677 60.6562C86.9138 60.3008 87.2328 60.0137 87.6248 59.7949C88.0213 59.5762 88.4884 59.4668 89.0261 59.4668C90.6485 59.4668 91.4734 60.3258 91.5007 62.0439V67H90.2361V62.1191C90.2361 61.5905 90.1153 61.1963 89.8738 60.9365C89.6323 60.6722 89.2267 60.54 88.657 60.54C88.1876 60.54 87.7979 60.6813 87.4881 60.9639C87.1782 61.2419 86.9981 61.6178 86.948 62.0918V67H85.6765V62.1533C85.6765 61.0778 85.1502 60.54 84.0974 60.54C83.268 60.54 82.7006 60.8932 82.3953 61.5996V67H81.1306V59.6035H82.3269ZM96.1093 63.5752L95.3163 64.4023V67H94.0516V56.5H95.3163V62.8506L95.993 62.0371L98.2968 59.6035H99.8348L96.9569 62.6934L100.17 67H98.6864L96.1093 63.5752ZM101.436 63.2334C101.436 62.5088 101.577 61.8571 101.859 61.2783C102.146 60.6995 102.543 60.2529 103.049 59.9385C103.559 59.624 104.14 59.4668 104.792 59.4668C105.799 59.4668 106.613 59.8154 107.232 60.5127C107.857 61.21 108.169 62.1374 108.169 63.2949V63.3838C108.169 64.1038 108.03 64.751 107.752 65.3252C107.479 65.8949 107.084 66.3392 106.569 66.6582C106.059 66.9772 105.471 67.1367 104.806 67.1367C103.803 67.1367 102.99 66.7881 102.365 66.0908C101.745 65.3936 101.436 64.4707 101.436 63.3223V63.2334ZM102.707 63.3838C102.707 64.2041 102.896 64.8626 103.274 65.3594C103.657 65.8561 104.168 66.1045 104.806 66.1045C105.448 66.1045 105.959 65.8538 106.337 65.3525C106.715 64.8467 106.904 64.1403 106.904 63.2334C106.904 62.4222 106.711 61.766 106.323 61.2646C105.94 60.7588 105.43 60.5059 104.792 60.5059C104.168 60.5059 103.664 60.7542 103.281 61.251C102.898 61.7477 102.707 62.4587 102.707 63.3838ZM113.96 60.7383C113.769 60.7064 113.561 60.6904 113.338 60.6904C112.509 60.6904 111.946 61.0436 111.65 61.75V67H110.385V59.6035H111.615L111.636 60.458C112.051 59.7972 112.638 59.4668 113.4 59.4668C113.646 59.4668 113.832 59.4987 113.96 59.5625V60.7383ZM119.848 61.7227C119.848 61.3262 119.973 61.0003 120.224 60.7451C120.479 60.4899 120.816 60.3623 121.236 60.3623C121.65 60.3623 121.988 60.4876 122.247 60.7383C122.507 60.9844 122.637 61.3193 122.637 61.7432V61.9961C122.637 62.3926 122.512 62.7161 122.261 62.9668C122.01 63.2174 121.671 63.3428 121.243 63.3428C120.819 63.3428 120.479 63.2174 120.224 62.9668C119.973 62.7116 119.848 62.3835 119.848 61.9824V61.7227ZM131.027 57.8125V59.6035H132.408V60.5811H131.027V65.168C131.027 65.4642 131.088 65.6875 131.212 65.8379C131.335 65.9837 131.544 66.0566 131.84 66.0566C131.986 66.0566 132.187 66.0293 132.442 65.9746V67C132.109 67.0911 131.786 67.1367 131.471 67.1367C130.906 67.1367 130.48 66.9658 130.193 66.624C129.906 66.2822 129.762 65.7969 129.762 65.168V60.5811H128.416V59.6035H129.762V57.8125H131.027ZM139.088 67C139.015 66.8542 138.955 66.5944 138.91 66.2207C138.322 66.8314 137.62 67.1367 136.804 67.1367C136.075 67.1367 135.476 66.9316 135.007 66.5215C134.542 66.1068 134.309 65.5827 134.309 64.9492C134.309 64.179 134.601 63.582 135.184 63.1582C135.772 62.7298 136.597 62.5156 137.659 62.5156H138.889V61.9346C138.889 61.4925 138.757 61.1416 138.493 60.8818C138.229 60.6175 137.839 60.4854 137.324 60.4854C136.873 60.4854 136.495 60.5993 136.189 60.8271C135.884 61.055 135.731 61.3307 135.731 61.6543H134.46C134.46 61.2852 134.59 60.9297 134.849 60.5879C135.114 60.2415 135.469 59.9681 135.916 59.7676C136.367 59.5671 136.861 59.4668 137.399 59.4668C138.251 59.4668 138.919 59.681 139.402 60.1094C139.885 60.5332 140.136 61.1188 140.154 61.8662V65.2705C140.154 65.9495 140.241 66.4896 140.414 66.8906V67H139.088ZM136.989 66.0361C137.385 66.0361 137.761 65.9336 138.117 65.7285C138.472 65.5234 138.73 65.2568 138.889 64.9287V63.4111H137.898C136.349 63.4111 135.574 63.8646 135.574 64.7715C135.574 65.168 135.706 65.4779 135.97 65.7012C136.235 65.9245 136.574 66.0361 136.989 66.0361ZM146.342 60.7383C146.15 60.7064 145.943 60.6904 145.72 60.6904C144.89 60.6904 144.327 61.0436 144.031 61.75V67H142.766V59.6035H143.997L144.017 60.458C144.432 59.7972 145.02 59.4668 145.781 59.4668C146.027 59.4668 146.214 59.4987 146.342 59.5625V60.7383ZM150.198 57.8125V59.6035H151.579V60.5811H150.198V65.168C150.198 65.4642 150.26 65.6875 150.383 65.8379C150.506 65.9837 150.715 66.0566 151.012 66.0566C151.158 66.0566 151.358 66.0293 151.613 65.9746V67C151.281 67.0911 150.957 67.1367 150.643 67.1367C150.077 67.1367 149.651 66.9658 149.364 66.624C149.077 66.2822 148.934 65.7969 148.934 65.168V60.5811H147.587V59.6035H148.934V57.8125H150.198ZM155.066 67H153.802V59.6035H155.066V67ZM153.699 57.6416C153.699 57.4365 153.761 57.2633 153.884 57.1221C154.011 56.9808 154.198 56.9102 154.444 56.9102C154.691 56.9102 154.877 56.9808 155.005 57.1221C155.133 57.2633 155.196 57.4365 155.196 57.6416C155.196 57.8467 155.133 58.0176 155.005 58.1543C154.877 58.291 154.691 58.3594 154.444 58.3594C154.198 58.3594 154.011 58.291 153.884 58.1543C153.761 58.0176 153.699 57.8467 153.699 57.6416ZM163.988 63.3838C163.988 64.514 163.729 65.4232 163.209 66.1113C162.69 66.7949 161.992 67.1367 161.117 67.1367C160.183 67.1367 159.461 66.8063 158.95 66.1455L158.889 67H157.727V56.5H158.991V60.417C159.502 59.7835 160.206 59.4668 161.104 59.4668C162.002 59.4668 162.706 59.8063 163.216 60.4854C163.731 61.1644 163.988 62.0941 163.988 63.2744V63.3838ZM162.724 63.2402C162.724 62.3789 162.557 61.7135 162.225 61.2441C161.892 60.7747 161.414 60.54 160.789 60.54C159.955 60.54 159.356 60.9274 158.991 61.7021V64.9014C159.379 65.6761 159.983 66.0635 160.803 66.0635C161.409 66.0635 161.881 65.8288 162.218 65.3594C162.555 64.89 162.724 64.1836 162.724 63.2402ZM167.592 67H166.327V56.5H167.592V67ZM171.626 67H170.362V59.6035H171.626V67ZM170.259 57.6416C170.259 57.4365 170.321 57.2633 170.444 57.1221C170.571 56.9808 170.758 56.9102 171.004 56.9102C171.25 56.9102 171.437 56.9808 171.565 57.1221C171.692 57.2633 171.756 57.4365 171.756 57.6416C171.756 57.8467 171.692 58.0176 171.565 58.1543C171.437 58.291 171.25 58.3594 171.004 58.3594C170.758 58.3594 170.571 58.291 170.444 58.1543C170.321 58.0176 170.259 57.8467 170.259 57.6416Z" fill="#333333"/>
</g>
<defs>
<clipPath id="clip0">
<rect width="220" height="70" fill="white"/>
</clipPath>
</defs>
</svg>
