<svg width="30" height="30" viewBox="0 0 30 30" fill="none" xmlns="http://www.w3.org/2000/svg">
<path d="M23.1084 29.5332C22.8281 29.5324 22.5488 29.5017 22.2751 29.4415C17.0639 28.3635 12.2631 25.836 8.42506 22.1498C4.66896 18.4556 2.06389 13.752 0.925065 8.60818C0.790783 7.9671 0.823741 7.30226 1.02077 6.67761C1.2178 6.05296 1.57226 5.48952 2.05006 5.04151L5.3834 1.83318C5.55365 1.67217 5.75595 1.54887 5.97708 1.47133C6.19821 1.39379 6.43321 1.36375 6.66673 1.38318C6.90887 1.40844 7.14253 1.48644 7.35129 1.61169C7.56005 1.73695 7.73883 1.90642 7.87506 2.10818L12.0417 8.26651C12.198 8.50546 12.2734 8.78826 12.2569 9.07329C12.2404 9.35832 12.1328 9.63052 11.9501 9.84984L9.8584 12.3498C10.6914 14.1936 11.8712 15.8599 13.3334 17.2582C14.7861 18.7072 16.5033 19.8642 18.3917 20.6665L20.9834 18.6082C21.2011 18.4361 21.4659 18.3344 21.7428 18.3166C22.0197 18.2987 22.2954 18.3655 22.5334 18.5082L28.8251 22.5748C29.041 22.7038 29.2249 22.8799 29.3631 23.09C29.5013 23.3001 29.5901 23.5387 29.623 23.788C29.6559 24.0373 29.6319 24.2908 29.5529 24.5296C29.4739 24.7683 29.3419 24.986 29.1667 25.1665L25.9167 28.3832C25.5476 28.7505 25.1094 29.0413 24.6274 29.2386C24.1454 29.436 23.6292 29.5361 23.1084 29.5332ZM6.5334 3.03318L3.20006 6.24151C2.93127 6.49197 2.7323 6.80808 2.62272 7.15875C2.51314 7.50942 2.49671 7.88257 2.57506 8.24151C3.634 13.0683 6.06816 17.4851 9.5834 20.9582C13.1952 24.4261 17.7131 26.8035 22.6167 27.8165C22.9879 27.8941 23.3725 27.8784 23.7361 27.7708C24.0997 27.6631 24.4309 27.467 24.7001 27.1998L27.9501 23.9832L21.8751 20.0582L19.0917 22.2748C18.9852 22.3592 18.8596 22.4162 18.726 22.4409C18.5924 22.4656 18.4547 22.4572 18.3251 22.4165C16.014 21.565 13.9196 20.2133 12.1917 18.4582C10.4045 16.7892 9.01725 14.7382 8.1334 12.4582C8.09601 12.3201 8.09476 12.1748 8.12979 12.0362C8.16482 11.8975 8.23494 11.7702 8.3334 11.6665L10.5834 8.97485L6.5334 3.03318Z" fill="#333333"/>
</svg>
