<svg width="40" height="40" viewBox="0 0 40 40" fill="none" xmlns="http://www.w3.org/2000/svg">
<path d="M32.649 35H7.35002C6.46395 35.0012 5.61371 34.4861 4.98573 33.5676C4.35774 32.6492 4.00326 31.4023 4 30.1004V9.89956C4.00326 8.59767 4.35774 7.35081 4.98573 6.43235C5.61371 5.51389 6.46395 4.9988 7.35002 5H32.65C33.5361 4.9988 34.3863 5.51389 35.0143 6.43235C35.6423 7.35081 35.9967 8.59767 36 9.89956V30.1004C35.9967 31.4026 35.6421 32.6497 35.0139 33.5682C34.3857 34.4867 33.5352 35.0016 32.649 35ZM7.35002 6.50663C6.73574 6.50463 6.146 6.86073 5.7102 7.49682C5.2744 8.1329 5.02813 8.99701 5.02541 9.89956V30.1004C5.02813 31.003 5.2744 31.8671 5.7102 32.5032C6.146 33.1393 6.73574 33.4954 7.35002 33.4934H32.65C33.9317 33.4934 34.9746 31.9717 34.9746 30.1004V9.89956C34.9719 8.99701 34.7256 8.1329 34.2898 7.49682C33.854 6.86073 33.2643 6.50463 32.65 6.50663H7.35002Z" fill="#333333"/>
<path d="M11.648 19.418C10.7973 19.4172 9.98169 19.079 9.38009 18.4776C8.77849 17.8762 8.44002 17.0607 8.43896 16.21C8.43896 14.44 9.87797 13 11.648 13C13.418 13 14.857 14.44 14.857 16.21C14.8559 17.0607 14.5174 17.8762 13.9158 18.4776C13.3142 19.079 12.4986 19.4172 11.648 19.418ZM11.648 14C11.0622 14.0008 10.5006 14.2339 10.0865 14.6482C9.67237 15.0625 9.43949 15.6242 9.43896 16.21C9.43896 17.428 10.43 18.418 11.648 18.418C12.866 18.418 13.857 17.428 13.857 16.21C13.857 14.991 12.866 14 11.648 14Z" fill="#333333"/>
<path d="M16.797 24.2169H6.5C6.36739 24.2169 6.24021 24.1642 6.14645 24.0705C6.05268 23.9767 6 23.8495 6 23.7169V21.9699C6.114 19.9169 7.676 19.2979 8.486 19.2539L14.782 19.2529C15.619 19.2979 17.182 19.9169 17.296 21.9409L17.297 23.7159C17.2971 23.7817 17.2843 23.8468 17.2592 23.9076C17.2342 23.9684 17.1974 24.0236 17.1509 24.0701C17.1045 24.1167 17.0493 24.1536 16.9886 24.1788C16.9278 24.204 16.8627 24.2169 16.797 24.2169ZM7 23.2169H16.297V21.9699C16.205 20.3509 14.814 20.2559 14.755 20.2519L8.514 20.2529C8.396 20.2629 7.089 20.3989 6.999 21.9969L7 23.2169Z" fill="#333333"/>
<path d="M17.7871 13.4453H32.8231V14.4453H17.7871V13.4453Z" fill="#333333"/>
<path d="M17.7871 19.96H32.8231V20.96H17.7871V19.96Z" fill="#333333"/>
<path d="M17.7871 23.2168H32.8231V24.2168H17.7871V23.2168Z" fill="#333333"/>
<path d="M17.7871 16.7031H23.6861V17.7031H17.7871V16.7031Z" fill="#333333"/>
<path d="M27.2354 16.7031H32.8243V17.7031H27.2354V16.7031Z" fill="#333333"/>
</svg>
