<svg width="47" height="50" viewBox="0 0 47 50" fill="none" xmlns="http://www.w3.org/2000/svg">
<path d="M23.53 6.695C21.2767 6.695 19.305 7.17167 17.615 8.125C15.925 9.07833 14.495 10.3783 13.325 12.025C12.1983 13.6717 11.3317 15.5783 10.725 17.745C10.1617 19.9117 9.88 22.1867 9.88 24.57C9.88 26.8233 10.1617 29.0333 10.725 31.2C11.3317 33.3233 12.1983 35.23 13.325 36.92C14.495 38.5667 15.925 39.91 17.615 40.95C19.305 41.9467 21.2767 42.445 23.53 42.445C25.3067 42.445 27.0183 42.055 28.665 41.275C30.3117 40.4517 31.7633 39.2817 33.02 37.765C34.2767 36.2483 35.2733 34.385 36.01 32.175C36.79 29.965 37.18 27.43 37.18 24.57C37.18 22.0133 36.855 19.6517 36.205 17.485C35.5983 15.275 34.71 13.39 33.54 11.83C32.37 10.2267 30.94 8.97 29.25 8.06C27.56 7.15 25.6533 6.695 23.53 6.695ZM23.53 49.14C19.76 49.14 16.4233 48.5117 13.52 47.255C10.6167 45.9983 8.14667 44.2867 6.11 42.12C4.11667 39.91 2.6 37.31 1.56 34.32C0.520001 31.33 0 28.08 0 24.57C0 21.19 0.520001 18.005 1.56 15.015C2.64333 12.025 4.18167 9.425 6.175 7.215C8.21167 4.96167 10.6817 3.20667 13.585 1.95C16.4883 0.65 19.8033 0 23.53 0C27.7767 0 31.3733 0.736668 34.32 2.21C37.31 3.68334 39.7367 5.61167 41.6 7.995C43.5067 10.335 44.8717 12.9783 45.695 15.925C46.5617 18.8283 46.995 21.71 46.995 24.57C46.995 27.7767 46.475 30.8533 45.435 33.8C44.395 36.7467 42.8783 39.3683 40.885 41.665C38.935 43.9183 36.4867 45.7383 33.54 47.125C30.6367 48.4683 27.3 49.14 23.53 49.14Z" fill="#00CCCC"/>
</svg>
